<svg xmlns="http://www.w3.org/2000/svg" viewBox="0 0 195 195"><defs><style>.cls-1{fill:#08d1ff;}.cls-2{fill:#fff;}</style></defs><g id="Layer_1" data-name="Layer 1"><path class="cls-1" d="M97.5,192.5a95,95,0,1,0-95-95,95,95,0,0,0,95,95Z"/><path class="cls-2" d="M112.46,44a9.31,9.31,0,0,0-16.62,0l-22,42.92C18.19,69.33,10.43,119.1,54,144.45a9.46,9.46,0,0,0,13.24-3.69l15.59-30.41c25.29,10.26,61.07,33.79,61.31,33.93,9.81,5.73,17.52-4.92,13.49-12.17Zm-56.8,78.38c-7.48-4-26.25-28.87,9.44-18.41Zm35.8-28.77,12.69-24.75L125.76,111C119.09,107.18,99.89,96.86,91.46,93.56Z"/></g></svg>